{
	"patcher" : 	{
		"fileversion" : 1,
		"appversion" : 		{
			"major" : 8,
			"minor" : 3,
			"revision" : 1,
			"architecture" : "x64",
			"modernui" : 1
		}
,
		"classnamespace" : "box",
		"rect" : [ 453.0, 84.0, 782.0, 562.0 ],
		"bglocked" : 0,
		"openinpresentation" : 0,
		"default_fontsize" : 12.0,
		"default_fontface" : 0,
		"default_fontname" : "Arial",
		"gridonopen" : 1,
		"gridsize" : [ 15.0, 15.0 ],
		"gridsnaponopen" : 1,
		"objectsnaponopen" : 1,
		"statusbarvisible" : 2,
		"toolbarvisible" : 1,
		"lefttoolbarpinned" : 0,
		"toptoolbarpinned" : 0,
		"righttoolbarpinned" : 0,
		"bottomtoolbarpinned" : 0,
		"toolbars_unpinned_last_save" : 0,
		"tallnewobj" : 0,
		"boxanimatetime" : 200,
		"enablehscroll" : 1,
		"enablevscroll" : 1,
		"devicewidth" : 0.0,
		"description" : "",
		"digest" : "",
		"tags" : "",
		"style" : "",
		"subpatcher_template" : "",
		"assistshowspatchername" : 0,
		"boxes" : [ 			{
				"box" : 				{
					"id" : "obj-64",
					"maxclass" : "comment",
					"numinlets" : 1,
					"numoutlets" : 0,
					"patching_rect" : [ 687.0, 102.0, 150.0, 20.0 ],
					"text" : "cold"
				}

			}
, 			{
				"box" : 				{
					"id" : "obj-62",
					"maxclass" : "comment",
					"numinlets" : 1,
					"numoutlets" : 0,
					"patching_rect" : [ 602.0, 87.0, 150.0, 20.0 ],
					"text" : "hot"
				}

			}
, 			{
				"box" : 				{
					"id" : "obj-58",
					"maxclass" : "number",
					"numinlets" : 1,
					"numoutlets" : 2,
					"outlettype" : [ "", "bang" ],
					"parameter_enable" : 0,
					"patching_rect" : [ 598.0, 159.0, 50.0, 22.0 ]
				}

			}
, 			{
				"box" : 				{
					"id" : "obj-56",
					"maxclass" : "number",
					"numinlets" : 1,
					"numoutlets" : 2,
					"outlettype" : [ "", "bang" ],
					"parameter_enable" : 0,
					"patching_rect" : [ 715.0, 73.0, 50.0, 22.0 ]
				}

			}
, 			{
				"box" : 				{
					"id" : "obj-54",
					"maxclass" : "number",
					"numinlets" : 1,
					"numoutlets" : 2,
					"outlettype" : [ "", "bang" ],
					"parameter_enable" : 0,
					"patching_rect" : [ 611.0, 57.0, 50.0, 22.0 ]
				}

			}
, 			{
				"box" : 				{
					"id" : "obj-52",
					"maxclass" : "newobj",
					"numinlets" : 2,
					"numoutlets" : 1,
					"outlettype" : [ "int" ],
					"patching_rect" : [ 630.0, 103.0, 29.5, 22.0 ],
					"text" : "+"
				}

			}
, 			{
				"box" : 				{
					"id" : "obj-51",
					"maxclass" : "comment",
					"numinlets" : 1,
					"numoutlets" : 0,
					"patching_rect" : [ 102.0, 445.0, 310.0, 20.0 ],
					"presentation_linecount" : 5,
					"text" : "<f> floating point (default precision of 6 decimal places)"
				}

			}
, 			{
				"box" : 				{
					"format" : 6,
					"id" : "obj-50",
					"maxclass" : "flonum",
					"numinlets" : 1,
					"numoutlets" : 2,
					"outlettype" : [ "", "bang" ],
					"parameter_enable" : 0,
					"patching_rect" : [ 7.0, 445.0, 89.0, 22.0 ]
				}

			}
, 			{
				"box" : 				{
					"id" : "obj-48",
					"maxclass" : "comment",
					"numinlets" : 1,
					"numoutlets" : 0,
					"patching_rect" : [ 76.0, 403.0, 201.0, 20.0 ],
					"text" : "<i> integers (drag to change value)"
				}

			}
, 			{
				"box" : 				{
					"id" : "obj-46",
					"maxclass" : "number",
					"numinlets" : 1,
					"numoutlets" : 2,
					"outlettype" : [ "", "bang" ],
					"parameter_enable" : 0,
					"patching_rect" : [ 7.0, 403.0, 50.0, 22.0 ]
				}

			}
, 			{
				"box" : 				{
					"id" : "obj-44",
					"maxclass" : "comment",
					"numinlets" : 1,
					"numoutlets" : 0,
					"patching_rect" : [ 378.0, 95.0, 150.0, 20.0 ],
					"text" : "<b>"
				}

			}
, 			{
				"box" : 				{
					"id" : "obj-42",
					"maxclass" : "comment",
					"numinlets" : 1,
					"numoutlets" : 0,
					"patching_rect" : [ 386.0, 129.0, 150.0, 20.0 ],
					"text" : "<m>"
				}

			}
, 			{
				"box" : 				{
					"id" : "obj-40",
					"maxclass" : "newobj",
					"numinlets" : 2,
					"numoutlets" : 1,
					"outlettype" : [ "int" ],
					"patching_rect" : [ 350.0, 128.0, 29.5, 22.0 ],
					"text" : "432"
				}

			}
, 			{
				"box" : 				{
					"id" : "obj-39",
					"maxclass" : "button",
					"numinlets" : 1,
					"numoutlets" : 1,
					"outlettype" : [ "bang" ],
					"parameter_enable" : 0,
					"patching_rect" : [ 350.0, 95.0, 24.0, 24.0 ]
				}

			}
, 			{
				"box" : 				{
					"id" : "obj-38",
					"maxclass" : "comment",
					"numinlets" : 1,
					"numoutlets" : 0,
					"patching_rect" : [ 350.0, 54.0, 214.0, 20.0 ],
					"text" : "<b> button - sends a \"bang\" message"
				}

			}
, 			{
				"box" : 				{
					"id" : "obj-36",
					"maxclass" : "button",
					"numinlets" : 1,
					"numoutlets" : 1,
					"outlettype" : [ "bang" ],
					"parameter_enable" : 0,
					"patching_rect" : [ 319.0, 54.0, 24.0, 24.0 ]
				}

			}
, 			{
				"box" : 				{
					"id" : "obj-34",
					"maxclass" : "comment",
					"numinlets" : 1,
					"numoutlets" : 0,
					"patching_rect" : [ 256.0, 323.0, 247.0, 20.0 ],
					"text" : "Individual messages separated by commas"
				}

			}
, 			{
				"box" : 				{
					"id" : "obj-26",
					"maxclass" : "comment",
					"numinlets" : 1,
					"numoutlets" : 0,
					"patching_rect" : [ 258.0, 287.0, 150.0, 20.0 ],
					"text" : "list"
				}

			}
, 			{
				"box" : 				{
					"id" : "obj-24",
					"maxclass" : "message",
					"numinlets" : 2,
					"numoutlets" : 1,
					"outlettype" : [ "" ],
					"patching_rect" : [ 84.0, 321.0, 170.0, 22.0 ],
					"presentation_linecount" : 2,
					"text" : "1, 2, 3, 4, 6, 7, 89, 10000, 20K"
				}

			}
, 			{
				"box" : 				{
					"id" : "obj-23",
					"maxclass" : "message",
					"numinlets" : 2,
					"numoutlets" : 1,
					"outlettype" : [ "" ],
					"patching_rect" : [ 84.0, 284.0, 163.0, 22.0 ],
					"presentation_linecount" : 2,
					"text" : "1 2 3 4 6 7 89 10000 20K"
				}

			}
, 			{
				"box" : 				{
					"id" : "obj-22",
					"maxclass" : "comment",
					"numinlets" : 1,
					"numoutlets" : 0,
					"patching_rect" : [ 173.0, 242.0, 99.0, 20.0 ],
					"text" : "<string>"
				}

			}
, 			{
				"box" : 				{
					"id" : "obj-21",
					"maxclass" : "message",
					"numinlets" : 2,
					"numoutlets" : 1,
					"outlettype" : [ "" ],
					"patching_rect" : [ 57.0, 246.0, 98.0, 22.0 ],
					"presentation_linecount" : 2,
					"text" : "\"I'm a message!\""
				}

			}
, 			{
				"box" : 				{
					"id" : "obj-20",
					"maxclass" : "button",
					"numinlets" : 1,
					"numoutlets" : 1,
					"outlettype" : [ "bang" ],
					"parameter_enable" : 0,
					"patching_rect" : [ 614.0, 452.0, 24.0, 24.0 ]
				}

			}
, 			{
				"box" : 				{
					"id" : "obj-18",
					"maxclass" : "comment",
					"numinlets" : 1,
					"numoutlets" : 0,
					"patching_rect" : [ 161.0, 203.0, 99.0, 20.0 ],
					"text" : "<Max Message>"
				}

			}
, 			{
				"box" : 				{
					"id" : "obj-16",
					"maxclass" : "comment",
					"numinlets" : 1,
					"numoutlets" : 0,
					"patching_rect" : [ 459.0, 246.0, 32.0, 20.0 ],
					"text" : "<c>"
				}

			}
, 			{
				"box" : 				{
					"id" : "obj-15",
					"maxclass" : "comment",
					"numinlets" : 1,
					"numoutlets" : 0,
					"patching_rect" : [ 459.0, 209.0, 32.0, 20.0 ],
					"text" : "<c>"
				}

			}
, 			{
				"box" : 				{
					"id" : "obj-13",
					"maxclass" : "newobj",
					"numinlets" : 1,
					"numoutlets" : 0,
					"patching_rect" : [ 8.0, 348.0, 71.0, 22.0 ],
					"text" : "print sthing:"
				}

			}
, 			{
				"box" : 				{
					"id" : "obj-12",
					"maxclass" : "message",
					"numinlets" : 2,
					"numoutlets" : 1,
					"outlettype" : [ "" ],
					"patching_rect" : [ 57.0, 203.0, 89.0, 22.0 ],
					"text" : "I'm a message!"
				}

			}
, 			{
				"box" : 				{
					"id" : "obj-10",
					"maxclass" : "comment",
					"numinlets" : 1,
					"numoutlets" : 0,
					"patching_rect" : [ 303.0, 209.0, 150.0, 20.0 ],
					"text" : "I'm a comment."
				}

			}
, 			{
				"box" : 				{
					"id" : "obj-9",
					"maxclass" : "comment",
					"numinlets" : 1,
					"numoutlets" : 0,
					"patching_rect" : [ 303.0, 246.0, 150.0, 20.0 ],
					"text" : "I'm a comment."
				}

			}
, 			{
				"box" : 				{
					"id" : "obj-7",
					"maxclass" : "comment",
					"numinlets" : 1,
					"numoutlets" : 0,
					"patching_rect" : [ 51.0, 134.0, 52.0, 20.0 ],
					"presentation_linecount" : 3,
					"text" : "<math>"
				}

			}
, 			{
				"box" : 				{
					"id" : "obj-6",
					"maxclass" : "comment",
					"numinlets" : 1,
					"numoutlets" : 0,
					"patching_rect" : [ 14.0, 12.0, 31.0, 20.0 ],
					"text" : "<n>"
				}

			}
, 			{
				"box" : 				{
					"id" : "obj-4",
					"maxclass" : "newobj",
					"numinlets" : 1,
					"numoutlets" : 1,
					"outlettype" : [ "" ],
					"patching_rect" : [ 58.0, 12.0, 100.0, 22.0 ]
				}

			}
, 			{
				"box" : 				{
					"id" : "obj-3",
					"maxclass" : "newobj",
					"numinlets" : 2,
					"numoutlets" : 1,
					"outlettype" : [ "int" ],
					"patching_rect" : [ 108.0, 132.0, 29.5, 22.0 ],
					"text" : "+"
				}

			}
 ],
		"lines" : [ 			{
				"patchline" : 				{
					"destination" : [ "obj-13", 0 ],
					"midpoints" : [ 66.5, 228.0, 17.5, 228.0 ],
					"source" : [ "obj-12", 0 ]
				}

			}
, 			{
				"patchline" : 				{
					"destination" : [ "obj-13", 0 ],
					"source" : [ "obj-21", 0 ]
				}

			}
, 			{
				"patchline" : 				{
					"destination" : [ "obj-13", 0 ],
					"source" : [ "obj-23", 0 ]
				}

			}
, 			{
				"patchline" : 				{
					"destination" : [ "obj-13", 0 ],
					"source" : [ "obj-24", 0 ]
				}

			}
, 			{
				"patchline" : 				{
					"destination" : [ "obj-13", 0 ],
					"midpoints" : [ 328.5, 189.0, 17.5, 189.0 ],
					"source" : [ "obj-36", 0 ]
				}

			}
, 			{
				"patchline" : 				{
					"destination" : [ "obj-40", 0 ],
					"source" : [ "obj-39", 0 ]
				}

			}
, 			{
				"patchline" : 				{
					"destination" : [ "obj-13", 0 ],
					"midpoints" : [ 359.5, 189.0, 17.5, 189.0 ],
					"source" : [ "obj-40", 0 ]
				}

			}
, 			{
				"patchline" : 				{
					"destination" : [ "obj-58", 0 ],
					"source" : [ "obj-52", 0 ]
				}

			}
, 			{
				"patchline" : 				{
					"destination" : [ "obj-52", 0 ],
					"source" : [ "obj-54", 0 ]
				}

			}
, 			{
				"patchline" : 				{
					"destination" : [ "obj-52", 1 ],
					"source" : [ "obj-56", 0 ]
				}

			}
 ],
		"dependency_cache" : [  ],
		"autosave" : 0
	}

}
