{
	"patcher" : 	{
		"fileversion" : 1,
		"appversion" : 		{
			"major" : 8,
			"minor" : 3,
			"revision" : 1,
			"architecture" : "x64",
			"modernui" : 1
		}
,
		"classnamespace" : "box",
		"rect" : [ 41.0, 84.0, 877.0, 570.0 ],
		"bglocked" : 0,
		"openinpresentation" : 0,
		"default_fontsize" : 12.0,
		"default_fontface" : 0,
		"default_fontname" : "Arial",
		"gridonopen" : 1,
		"gridsize" : [ 15.0, 15.0 ],
		"gridsnaponopen" : 1,
		"objectsnaponopen" : 1,
		"statusbarvisible" : 2,
		"toolbarvisible" : 1,
		"lefttoolbarpinned" : 0,
		"toptoolbarpinned" : 0,
		"righttoolbarpinned" : 0,
		"bottomtoolbarpinned" : 0,
		"toolbars_unpinned_last_save" : 0,
		"tallnewobj" : 0,
		"boxanimatetime" : 200,
		"enablehscroll" : 1,
		"enablevscroll" : 1,
		"devicewidth" : 0.0,
		"description" : "",
		"digest" : "",
		"tags" : "",
		"style" : "",
		"subpatcher_template" : "",
		"assistshowspatchername" : 0,
		"boxes" : [ 			{
				"box" : 				{
					"id" : "obj-9",
					"maxclass" : "comment",
					"numinlets" : 1,
					"numoutlets" : 0,
					"patching_rect" : [ 35.5, 295.0, 150.0, 20.0 ],
					"presentation" : 1,
					"presentation_linecount" : 2,
					"presentation_rect" : [ 11.0, 108.0, 77.0, 34.0 ],
					"text" : "Lowpass Filter Control"
				}

			}
, 			{
				"box" : 				{
					"id" : "obj-5",
					"maxclass" : "comment",
					"numinlets" : 1,
					"numoutlets" : 0,
					"patching_rect" : [ 751.5, 469.0, 150.0, 20.0 ],
					"presentation" : 1,
					"presentation_rect" : [ 432.0, 101.0, 150.0, 20.0 ],
					"text" : "Resulting \"composition\""
				}

			}
, 			{
				"box" : 				{
					"id" : "obj-2",
					"maxclass" : "comment",
					"numinlets" : 1,
					"numoutlets" : 0,
					"patching_rect" : [ 551.0, 38.0, 70.0, 20.0 ],
					"presentation" : 1,
					"presentation_rect" : [ 100.0, 28.0, 64.0, 20.0 ],
					"text" : "Start/Stop"
				}

			}
, 			{
				"box" : 				{
					"fontface" : 1,
					"fontsize" : 14.0,
					"id" : "obj-134",
					"maxclass" : "comment",
					"numinlets" : 1,
					"numoutlets" : 0,
					"patching_rect" : [ 175.0, 5.0, 740.0, 23.0 ],
					"text" : "Generate a melody - pitch and rhythm (onset and duration) are based on a \"calmed\" drunkard's walk."
				}

			}
, 			{
				"box" : 				{
					"id" : "obj-132",
					"maxclass" : "comment",
					"numinlets" : 1,
					"numoutlets" : 0,
					"patching_rect" : [ 532.0, 913.0, 150.0, 20.0 ],
					"text" : "(reverse - hi to lo)"
				}

			}
, 			{
				"box" : 				{
					"id" : "obj-130",
					"maxclass" : "comment",
					"numinlets" : 1,
					"numoutlets" : 0,
					"patching_rect" : [ 1072.0, 192.0, 150.0, 20.0 ],
					"text" : "<= note off"
				}

			}
, 			{
				"box" : 				{
					"id" : "obj-126",
					"maxclass" : "newobj",
					"numinlets" : 1,
					"numoutlets" : 0,
					"patching_rect" : [ 477.5, 1122.0, 77.0, 22.0 ],
					"text" : "s note.length"
				}

			}
, 			{
				"box" : 				{
					"id" : "obj-125",
					"maxclass" : "message",
					"numinlets" : 2,
					"numoutlets" : 1,
					"outlettype" : [ "" ],
					"patching_rect" : [ 1005.0, 236.0, 32.0, 22.0 ],
					"text" : "$1 0"
				}

			}
, 			{
				"box" : 				{
					"id" : "obj-123",
					"maxclass" : "newobj",
					"numinlets" : 2,
					"numoutlets" : 1,
					"outlettype" : [ "" ],
					"patching_rect" : [ 1005.0, 192.0, 65.0, 22.0 ],
					"text" : "pipe 2500."
				}

			}
, 			{
				"box" : 				{
					"id" : "obj-120",
					"maxclass" : "comment",
					"numinlets" : 1,
					"numoutlets" : 0,
					"patching_rect" : [ 911.0, 192.0, 75.0, 20.0 ],
					"text" : "<= note on"
				}

			}
, 			{
				"box" : 				{
					"id" : "obj-118",
					"maxclass" : "comment",
					"numinlets" : 1,
					"numoutlets" : 0,
					"patching_rect" : [ 889.0, 177.0, 114.0, 20.0 ],
					"text" : "<cents> <velocity>"
				}

			}
, 			{
				"box" : 				{
					"id" : "obj-116",
					"maxclass" : "newobj",
					"numinlets" : 1,
					"numoutlets" : 0,
					"patching_rect" : [ 1026.85714285714289, 684.0, 40.0, 22.0 ],
					"text" : "s play"
				}

			}
, 			{
				"box" : 				{
					"id" : "obj-115",
					"maxclass" : "message",
					"numinlets" : 2,
					"numoutlets" : 1,
					"outlettype" : [ "" ],
					"patching_rect" : [ 870.0, 191.0, 45.0, 22.0 ],
					"text" : "$1 100"
				}

			}
, 			{
				"box" : 				{
					"id" : "obj-113",
					"maxclass" : "message",
					"numinlets" : 2,
					"numoutlets" : 1,
					"outlettype" : [ "" ],
					"patching_rect" : [ 654.0, 443.0, 82.0, 22.0 ],
					"text" : "tonedivision 8"
				}

			}
, 			{
				"box" : 				{
					"id" : "obj-111",
					"maxclass" : "newobj",
					"numinlets" : 0,
					"numoutlets" : 1,
					"outlettype" : [ "" ],
					"patching_rect" : [ 1051.0, 80.0, 75.0, 22.0 ],
					"text" : "r note.length"
				}

			}
, 			{
				"box" : 				{
					"id" : "obj-110",
					"maxclass" : "newobj",
					"numinlets" : 1,
					"numoutlets" : 3,
					"outlettype" : [ "float", "float", "float" ],
					"patching_rect" : [ 735.0, 142.0, 289.0, 22.0 ],
					"text" : "t f f f"
				}

			}
, 			{
				"box" : 				{
					"bwcompatibility" : 80100,
					"clefs" : [ "FFGG" ],
					"defaultnoteslots" : [ "null" ],
					"fontface" : 0,
					"fontname" : "Arial",
					"fontsize" : 12.0,
					"id" : "obj-109",
					"loop" : [ 0.0, 1000.0 ],
					"maxclass" : "bach.roll",
					"numinlets" : 6,
					"numoutlets" : 8,
					"numvoices" : 1,
					"out" : "nnnnnnn",
					"outlettype" : [ "", "", "", "", "", "", "", "bang" ],
					"patching_rect" : [ 738.0, 485.0, 356.0, 174.0 ],
					"pitcheditrange" : [ "null" ],
					"presentation" : 1,
					"presentation_rect" : [ 359.0, 122.0, 356.0, 174.0 ],
					"stafflines" : [ 5 ],
					"textcolor" : [ 0.0, 0.0, 0.0, 1.0 ],
					"tonedivision" : 8,
					"versionnumber" : 80100,
					"voicenames" : [ "[", "]" ],
					"voicespacing" : [ 0.0, 17.0 ],
					"whole_roll_data_0000000000" : [ "roll", "[", "slotinfo", "[", 1, "[", "name", "velocity envelope", "]", "[", "type", "function", "]", "[", "key", 0, "]", "[", "range", "_x_x_x_x_bach_float64_x_x_x_x_", 0, 0, "_x_x_x_x_bach_float64_x_x_x_x_", 0, 1080016896, "]", "[", "slope", "_x_x_x_x_bach_float64_x_x_x_x_", 0, 0, "]", "[", "representation", "]", "[", "grid", "]", "[", "ysnap", "]", "[", "domain", "_x_x_x_x_bach_float64_x_x_x_x_", 0, 0, "_x_x_x_x_bach_float64_x_x_x_x_", 0, 1072693248, "]", "[", "domainslope", "_x_x_x_x_bach_float64_x_x_x_x_", 0, 0, "]", "[", "temporalmode", "relative", "]", "[", "extend", 0, "]", "[", "width", "auto", "]", "[", "height", "auto", "]", "[", "copywhensplit", 0, "]", "[", "access", "readandwrite", "]", "[", "follownotehead", 0, "]", "]", "[", 2, "[", "name", "slot function", "]", "[", "type", "function", "]", "[", "key", 0, "]", "[", "range", "_x_x_x_x_bach_float64_x_x_x_x_", 0, 0, "_x_x_x_x_bach_float64_x_x_x_x_", 0, 1072693248, "]", "[", "slope", "_x_x_x_x_bach_float64_x_x_x_x_", 0, 0, "]", "[", "representation", "]", "[", "grid", "]", "[", "ysnap", "]", "[", "domain", "_x_x_x_x_bach_float64_x_x_x_x_", 0, 0, "_x_x_x_x_bach_float64_x_x_x_x_", 0, 1072693248, "]", "[", "domainslope", "_x_x_x_x_bach_float64_x_x_x_x_", 0, 0, "]", "[", "temporalmode", "relative", "]", "[", "extend", 0, "]", "[", "width", "auto", "]", "[", "height", "auto", "]", "[", "copywhensplit", 0, "]", "[", "access", "readandwrite", "]", "[", "follownotehead", 0, "]", "]", "[", 3, "[", "name", "slot intlist", "]", "[", "type", "intlist", "]", "[", "key", 0, "]", "[", "range", "_x_x_x_x_bach_float64_x_x_x_x_", 0, 0, "_x_x_x_x_bach_float64_x_x_x_x_", 0, 1080016896, "]", "[", "slope", "_x_x_x_x_bach_float64_x_x_x_x_", 0, 0, "]", "[", "representation", "]", "[", "default", "_x_x_x_x_bach_float64_x_x_x_x_", 0, 1078984704, "]", "[", "temporalmode", "none", "]", "[", "extend", 0, "]", "[", "width", "_x_x_x_x_bach_float64_x_x_x_x_", 0, 1079574528, "]", "[", "height", "auto", "]", "[", "copywhensplit", 1, "]", "[", "access", "readandwrite", "]", "[", "follownotehead", 0, "]", "]", "[", 4, "[", "name", "slot floatlist", "]", "[", "type", "floatlist", "]", "[", "key", 0, "]", "[", "range", "_x_x_x_x_bach_float64_x_x_x_x_", 0, 0, "_x_x_x_x_bach_float64_x_x_x_x_", 0, 1072693248, "]", "[", "slope", "_x_x_x_x_bach_float64_x_x_x_x_", 0, 0, "]", "[", "representation", "]", "[", "default", "_x_x_x_x_bach_float64_x_x_x_x_", 0, 0, "]", "[", "temporalmode", "none", "]", "[", "extend", 0, "]", "[", "width", "_x_x_x_x_bach_float64_x_x_x_x_", 0, 1079574528, "]", "[", "height", "auto", "]", "[", "copywhensplit", 1, "]", "[", "access", "readandwrite", "]", "[", "follownotehead", 0, "]", "]", "[", 5, "[", "name", "slot int", "]", "[", "type", "int", "]", "[", "key", 0, "]", "[", "range", "_x_x_x_x_bach_float64_x_x_x_x_", 0, 0, "_x_x_x_x_bach_float64_x_x_x_x_", 0, 1080016896, "]", "[", "slope", "_x_x_x_x_bach_float64_x_x_x_x_", 0, 0, "]", "[", "representation", "]", "[", "default", "_x_x_x_x_bach_float64_x_x_x_x_", 0, 1078984704, "]", "[", "temporalmode", "none", "]", "[", "extend", 0, "]", "[", "width", "_x_x_x_x_bach_float64_x_x_x_x_", 0, 1079574528, "]", "[", "height", "auto", "]", "[", "copywhensplit", 1, "]", "[", "access", "readandwrite", "]", "[", "follownotehead", 0, "]", "]", "[", 6, "[", "name", "slot float", "]", "[", "type", "float", "]", "[", "key", 0, "]", "[", "range", "_x_x_x_x_bach_float64_x_x_x_x_", 0, 0, "_x_x_x_x_bach_float64_x_x_x_x_", 0, 1072693248, "]", "[", "slope", "_x_x_x_x_bach_float64_x_x_x_x_", 0, 0, "]", "[", "representation", "]", "[", "default", "_x_x_x_x_bach_float64_x_x_x_x_", 0, 0, "]", "[", "temporalmode", "none", "]", "[", "extend", 0, "]", "[", "width", "_x_x_x_x_bach_float64_x_x_x_x_", 0, 1079574528, "]", "[", "height", "auto", "]", "[", "copywhensplit", 1, "]", "[", "access", "readandwrite", "]", "[", "follownotehead", 0, "]", "]", "[", 7, "[", "name", "slot text", "]", "[", "type", "text", "]", "[", "key", 0, "]", "[", "temporalmode", "none", "]", "[", "extend", 0, "]", "[", "width", "_x_x_x_x_bach_float64_x_x_x_x_", 0, 1079574528, "]", "[", "height", "auto", "]", "[", "copywhensplit", 0, "]", "[", "access", "readandwrite", "]", "[", "follownotehead", 0, "]", "]", "[", 8, "[", "name", "slot filelist", "]", "[", "type", "filelist", "]", "[", "key", 0, "]", "[", "temporalmode", "none", "]", "[", "extend", 0, "]", "[", "width", "_x_x_x_x_bach_float64_x_x_x_x_", 0, 1080213504, "]", "[", "height", "auto", "]", "[", "copywhensplit", 1, "]", "[", "access", "readandwrite", "]", "[", "follownotehead", 0, "]", "]", "[", 9, "[", "name", "slot spat", "]", "[", "type", "spat", "]", "[", "key", 0, "]", "[", "range", "_x_x_x_x_bach_float64_x_x_x_x_", 0, 0, "_x_x_x_x_bach_float64_x_x_x_x_", 0, 1076101120, "]", "[", "slope", "_x_x_x_x_bach_float64_x_x_x_x_", 0, 0, "]", "[", "representation", "]", "[", "temporalmode", "relative", "]", "[", "extend", 0, "]", "[", "width", "auto", "]", "[", "height", "auto", "]", "[", "copywhensplit", 0, "]", "[", "access", "readandwrite", "]", "[", "follownotehead", 0, "]", "]", "[", 10, "[", "name", "slot llll", "]", "[", "type", "llll", "]", "[", "key", 0, "]", "[", "temporalmode", "none", "]", "[", "extend", 0, "]", "[", "width", "_x_x_x_x_bach_float64_x_x_x_x_", 0, 1079574528, "]", "[", "height", "auto", "]", "[", "copywhensplit", 0, "]", "[", "access", "readandwrite", "]", "[", "follownotehead", 0, "]", "]", "[", 11, "[", "name", "slot 11", "]", "[", "type", "none", "]", "[", "key", 0, "]", "[", "temporalmode", "none", "]", "[", "extend", 0, "]", "[", "width", "_x_x_x_x_bach_float64_x_x_x_x_", 0, 1079574528, "]", "[", "height", "auto", "]", "[", "copywhensplit", 1, "]", "[", "access", "readandwrite", "]", "[", "follownotehead", 0, "]", "]", "[", 12, "[", "name", "slot 12", "]", "[", "type", "none", "]", "[", "key", 0, "]", "[", "temporalmode", "none", "]", "[", "extend", 0, "]", "[", "width", "_x_x_x_x_bach_float64_x_x_x_x_", 0, 1079574528, "]", "[", "height", "auto", "]", "[", "copywhensplit", 1, "]", "[", "access", "readandwrite", "]", "[", "follownotehead", 0, "]", "]", "[", 13, "[", "name", "slot 13", "]", "[", "type", "none", "]", "[", "key", 0, "]", "[", "temporalmode", "none", "]", "[", "extend", 0, "]", "[", "width", "_x_x_x_x_bach_float64_x_x_x_x_", 0, 1079574528, "]", "[", "height", "auto", "]", "[", "copywhensplit", 1, "]", "[", "access", "readandwrite", "]", "[", "follownotehead", 0, "]", "]", "[", 14, "[", "name", "slot 14", "]", "[", "type", "none", "]", "[", "key", 0, "]", "[", "temporalmode", "none", "]", "[", "extend", 0, "]", "[", "width", "_x_x_x_x_bach_float64_x_x_x_x_", 0, 1079574528, "]", "[", "height", "auto", "]", "[", "copywhensplit", 1, "]", "[", "access", "readandwrite", "]", "[", "follownotehead", 0, "]", "]", "[", 15, "[", "name", "slot 15", "]", "[", "type", "none", "]", "[", "key", 0, "]", "[", "temporalmode", "none", "]", "[", "extend", 0, "]", "[", "width", "_x_x_x_x_bach_float64_x_x_x_x_", 0, 1079574528, "]", "[", "height", "auto", "]", "[", "copywhensplit", 1, "]", "[", "access", "readandwrite", "]", "[", "follownotehead", 0, "]", "]", "[", 16, "[", "name", "slot 16", "]", "[", "type", "none", "]", "[", "key", 0, "]", "[", "temporalmode", "none", "]", "[", "extend", 0, "]", "[", "width", "_x_x_x_x_bach_float64_x_x_x_x_", 0, 1079574528, "]", "[", "height", "auto", "]", "[", "copywhensplit", 1, "]", "[", "access", "readandwrite", "]", "[", "follownotehead", 0, "]", "]", "[", 17, "[", "name", "slot 17", "]", "[", "type", "none", "]", "[", "key", 0, "]", "[", "temporalmode", "none", "]", "[", "extend", 0, "]", "[", "width", "_x_x_x_x_bach_float64_x_x_x_x_", 0, 1079574528, "]", "[", "height", "auto", "]", "[", "copywhensplit", 1, "]", "[", "access", "readandwrite", "]", "[", "follownotehead", 0, "]", "]", "[", 18, "[", "name", "slot 18", "]", "[", "type", "none", "]", "[", "key", 0, "]", "[", "temporalmode", "none", "]", "[", "extend", 0, "]", "[", "width", "_x_x_x_x_bach_float64_x_x_x_x_", 0, 1079574528, "]", "[", "height", "auto", "]", "[", "copywhensplit", 1, "]", "[", "access", "readandwrite", "]", "[", "follownotehead", 0, "]", "]", "[", 19, "[", "name", "slot 19", "]", "[", "type", "none", "]", "[", "key", 0, "]", "[", "temporalmode", "none", "]", "[", "extend", 0, "]", "[", "width", "_x_x_x_x_bach_float64_x_x_x_x_", 0, 1079574528, "]", "[", "height", "auto", "]", "[", "copywhensplit", 1, "]", "[", "access", "readandwrite", "]", "[", "follownotehead", 0, "]", "]", "[", 20, "[", "name", "dynamics", "]", "[", "type", "dynamics", "]", "[", "key", "d", "]", "[", "temporalmode", "none", "]", "[", "extend", 0, "]", "[", "width", "_x_x_x_x_bach_float64_x_x_x_x_", 0, 1079738368, "]", "[", "height", "auto", "]", "[", "copywhensplit", 0, "]", "[", "access", "readandwrite", "]", "[", "follownotehead", 0, "]", "]", "[", 21, "[", "name", "lyrics", "]", "[", "type", "text", "]", "[", "key", "l", "]", "[", "temporalmode", "none", "]", "[", "extend", 0, "]", "[", "width", "_x_x_x_x_bach_float64_x_x_x_x_", 0, 1079574528, "]", "[", "height", "auto", "]", "[", "copywhensplit", 0, "]", "[", "access", "readandwrite", "]", "[", "follownotehead", 0, "]", "]", "[", 22, "[", "name", "articulations", "]", "[", "type", "articulations", "]", "[", "key", "a", "]", "[", "temporalmode", "none", "]", "[", "extend", 0, "]", "[", "width", "_x_x_x_x_bach_float64_x_x_x_x_", 0, 1079738368, "]", "[", "height", "auto", "]", "[", "copywhensplit", 1, "]", "[", "access", "readandwrite", "]", "[", "follownotehead", 0, "]", "]", "[", 23, "[", "name", "notehead", "]", "[", "type", "notehead", "]", "[", "key", "h", "]", "[", "temporalmode", "none", "]", "[", "extend", 0, "]", "[", "width", "_x_x_x_x_bach_float64_x_x_x_x_", 0, 1079738368, "]", "[", "height", "auto", "]", "[", "copywhensplit", 1, "]", "[", "access", "readandwrite", "]", "[", "follownotehead", 0, "]", "]", "[", 24, "[", "name", "annotation", "]", "[", "type", "text", "]", "[", "key", "t", "]", "[", "temporalmode", "none", "]", "[", "extend", 0, "]", "[", "width", "_x_x_x_x_bach_float64_x_x_x_x_", 0, 1079574528, "]", "[", "height", "auto", "]", "[", "copywhensplit", 1, "]", "[", "access", "readandwrite", "]", "[", "follownotehead", 0, "]", "]", "[", 25, "[", "name", "slot 25", "]", "[", "type", "none", "]", "[", "key", 0, "]", "[", "temporalmode", "none", "]", "[", "extend", 0, "]", "[", "width", "_x_x_x_x_bach_float64_x_x_x_x_", 0, 1079574528, "]", "[", "height", "auto", "]", "[", "copywhensplit", 1, "]", "[", "access", "readandwrite", "]", "[", "follownotehead", 0, "]", "]", "[", 26, "[", "name", "slot 26", "]", "[", "type", "none", "]", "[", "key", 0, "]", "[", "temporalmode", "none", "]", "[", "extend", 0, "]", "[", "width", "_x_x_x_x_bach_float64_x_x_x_x_", 0, 1079574528, "]", "[", "height", "auto", "]", "[", "copywhensplit", 1, "]", "[", "access", "readandwrite", "]", "[", "follownotehead", 0, "]", "]", "[", 27, "[", "name", "slot 27", "]", "[", "type", "none", "]", "[", "key", 0, "]", "[", "temporalmode", "none", "]", "[", "extend", 0, "]", "[", "width", "_x_x_x_x_bach_float64_x_x_x_x_", 0, 1079574528, "]", "[", "height", "auto", "]", "[", "copywhensplit", 1, "]", "[", "access", "readandwrite", "]", "[", "follownotehead", 0, "]", "]", "[", 28, "[", "name", "slot 28", "]", "[", "type", "none", "]", "[", "key", 0, "]", "[", "temporalmode", "none", "]", "[", "extend", 0, "]", "[", "width", "_x_x_x_x_bach_float64_x_x_x_x_", 0, 1079574528, "]", "[", "height", "auto", "]", "[", "copywhensplit", 1, "]", "[", "access", "readandwrite", "]", "[", "follownotehead", 0, "]", "]", "[", 29, "[", "name", "slot 29", "]", "[", "type", "none", "]", "[", "key", 0, "]", "[", "temporalmode", "none", "]", "[", "extend", 0, "]", "[", "width", "_x_x_x_x_bach_float64_x_x_x_x_", 0, 1079574528, "]", "[", "height", "auto", "]", "[", "copywhensplit", 1, "]", "[", "access", "readandwrite", "]", "[", "follownotehead", 0, "]", "]", "[", 30, "[", "name", "slot 30", "]", "[", "type", "none", "]", "[", "key", 0, "]", "[", "temporalmode", "none", "]", "[", "extend", 0, "]", "[", "width", "_x_x_x_x_bach_float64_x_x_x_x_", 0, 1079574528, "]", "[", "height", "auto", "]", "[", "copywhensplit", 1, "]", "[", "access", "readandwrite", "]", "[", "follownotehead", 0, "]", "]", "]", "[", "commands", "[", 1, "[", "note", "note", "]", "[", "chord", "chord", "]", "[", "rest", "rest", "]", "[", "key", 0, "]", "]", "[", 2, "[", "note", "note", "]", "[", "chord", "chord", "]", "[", "rest", "rest", "]", "[", "key", 0, "]", "]", "[", 3, "[", "note", "note", "]", "[", "chord", "chord", "]", "[", "rest", "rest", "]", "[", "key", 0, "]", "]", "[", 4, "[", "note", "note", "]", "[", "chord", "chord", "]", "[", "rest", "rest", "]", "[", "key", 0, "]", "]", "[", 5, "[", "note", "note", "]", "[", "chord", "chord", "]", "[", "rest", "rest", "]", "[", "key", 0, "]", "]", "]", "[", "groups", "]", "[", "markers", "]", "[", "midichannels", 1, "]", "[", "articulationinfo", "]", "[", "noteheadinfo", "]", "[", "[", "_x_x_x_x_bach_float64_x_x_x_x_", 2952790016, 1073862829, "[", "_x_x_x_x_bach_float64_x_x_x_x_", 0, 1086179584, "_x_x_x_x_bach_float64_x_x_x_x_", 4259315712, 1081108948, 100, 0, "]", 0, "]", "[", "_x_x_x_x_bach_float64_x_x_x_x_", 3120562176, 1081119706, "[", "_x_x_x_x_bach_float64_x_x_x_x_", 0, 1086211584, "_x_x_x_x_bach_float64_x_x_x_x_", 1835008000, 1081105093, 100, 0, "]", 0, "]", "[", "_x_x_x_x_bach_float64_x_x_x_x_", 1388314624, 1082162070, "[", "_x_x_x_x_bach_float64_x_x_x_x_", 0, 1086256384, "_x_x_x_x_bach_float64_x_x_x_x_", 2705326080, 1080991446, 100, 0, "]", 0, "]", "[", "_x_x_x_x_bach_float64_x_x_x_x_", 2281701376, 1083186228, "[", "_x_x_x_x_bach_float64_x_x_x_x_", 0, 1086230784, "_x_x_x_x_bach_float64_x_x_x_x_", 197132288, 1081000339, 100, 0, "]", 0, "]", "[", "_x_x_x_x_bach_float64_x_x_x_x_", 962068480, 1083438772, "[", "_x_x_x_x_bach_float64_x_x_x_x_", 0, 1086211584, "_x_x_x_x_bach_float64_x_x_x_x_", 2604662784, 1081086805, 100, 0, "]", 0, "]", "[", "_x_x_x_x_bach_float64_x_x_x_x_", 3793223680, 1083702744, "[", "_x_x_x_x_bach_float64_x_x_x_x_", 0, 1086185984, "_x_x_x_x_bach_float64_x_x_x_x_", 2447376384, 1081111132, 100, 0, "]", 0, "]", "[", "_x_x_x_x_bach_float64_x_x_x_x_", 2370830336, 1083972759, "[", "_x_x_x_x_bach_float64_x_x_x_x_", 0, 1086237184, "_x_x_x_x_bach_float64_x_x_x_x_", 163577856, 1081059944, 100, 0, "]", 0, "]", "[", "_x_x_x_x_bach_float64_x_x_x_x_", 3470262272, 1084230103, "[", "_x_x_x_x_bach_float64_x_x_x_x_", 0, 1086275584, "_x_x_x_x_bach_float64_x_x_x_x_", 3573547008, 1080977272, 100, 0, "]", 0, "]", "[", "_x_x_x_x_bach_float64_x_x_x_x_", 948436992, 1084354870, "[", "_x_x_x_x_bach_float64_x_x_x_x_", 0, 1086320384, "_x_x_x_x_bach_float64_x_x_x_x_", 1702887424, 1080910728, 100, 0, "]", 0, "]", "[", "_x_x_x_x_bach_float64_x_x_x_x_", 4143710208, 1084475413, "[", "_x_x_x_x_bach_float64_x_x_x_x_", 0, 1086328960, "_x_x_x_x_bach_float64_x_x_x_x_", 3175088128, 1080894546, 100, 0, "]", 0, "]", "[", "_x_x_x_x_bach_float64_x_x_x_x_", 2405171200, 1084594946, "[", "_x_x_x_x_bach_float64_x_x_x_x_", 0, 1086288384, "_x_x_x_x_bach_float64_x_x_x_x_", 2638217216, 1080967808, 100, 0, "]", 0, "]", "[", "_x_x_x_x_bach_float64_x_x_x_x_", 1078984704, 1084843091, "[", "_x_x_x_x_bach_float64_x_x_x_x_", 0, 1086320384, "_x_x_x_x_bach_float64_x_x_x_x_", 3586129920, 1080927830, 100, 0, "]", 0, "]", "[", "_x_x_x_x_bach_float64_x_x_x_x_", 3916955648, 1084964838, "[", "_x_x_x_x_bach_float64_x_x_x_x_", 0, 1086338560, "_x_x_x_x_bach_float64_x_x_x_x_", 1849688064, 1080915875, 100, 0, "]", 0, "]", "[", "_x_x_x_x_bach_float64_x_x_x_x_", 405536768, 1085085717, "[", "_x_x_x_x_bach_float64_x_x_x_x_", 0, 1086344960, "_x_x_x_x_bach_float64_x_x_x_x_", 3040870400, 1080789269, 100, 0, "]", 0, "]", "[", "_x_x_x_x_bach_float64_x_x_x_x_", 3855089664, 1085198783, "[", "_x_x_x_x_bach_float64_x_x_x_x_", 0, 1086313984, "_x_x_x_x_bach_float64_x_x_x_x_", 989855744, 1080929904, 100, 0, "]", 0, "]", "[", "_x_x_x_x_bach_float64_x_x_x_x_", 652869632, 1085298385, "[", "_x_x_x_x_bach_float64_x_x_x_x_", 0, 1086320384, "_x_x_x_x_bach_float64_x_x_x_x_", 788529152, 1080943837, 100, 0, "]", 0, "]", "[", "_x_x_x_x_bach_float64_x_x_x_x_", 2315780096, 1085359711, "[", "_x_x_x_x_bach_float64_x_x_x_x_", 0, 1086332160, "_x_x_x_x_bach_float64_x_x_x_x_", 641728512, 1080853331, 100, 0, "]", 0, "]", "[", "_x_x_x_x_bach_float64_x_x_x_x_", 2384592896, 1085418261, "[", "_x_x_x_x_bach_float64_x_x_x_x_", 0, 1086335360, "_x_x_x_x_bach_float64_x_x_x_x_", 2436890624, 1080884461, 100, 0, "]", 0, "]", "[", "_x_x_x_x_bach_float64_x_x_x_x_", 2803761152, 1085536952, "[", "_x_x_x_x_bach_float64_x_x_x_x_", 0, 1086348160, "_x_x_x_x_bach_float64_x_x_x_x_", 851443712, 1080814532, 100, 0, "]", 0, "]", "[", "_x_x_x_x_bach_float64_x_x_x_x_", 2329542656, 1085594237, "[", "_x_x_x_x_bach_float64_x_x_x_x_", 0, 1086351360, "_x_x_x_x_bach_float64_x_x_x_x_", 2634022912, 1080807697, 100, 0, "]", 0, "]", "[", "_x_x_x_x_bach_float64_x_x_x_x_", 3697147904, 1085651302, "[", "_x_x_x_x_bach_float64_x_x_x_x_", 0, 1086338560, "_x_x_x_x_bach_float64_x_x_x_x_", 150994944, 1080867210, 100, 0, "]", 0, "]", "[", "_x_x_x_x_bach_float64_x_x_x_x_", 1511784448, 1085710228, "[", "_x_x_x_x_bach_float64_x_x_x_x_", 0, 1086275584, "_x_x_x_x_bach_float64_x_x_x_x_", 4081057792, 1081033102, 100, 0, "]", 0, "]", "[", "_x_x_x_x_bach_float64_x_x_x_x_", 1724907520, 1085774341, "[", "_x_x_x_x_bach_float64_x_x_x_x_", 0, 1086307584, "_x_x_x_x_bach_float64_x_x_x_x_", 1254096896, 1080902745, 100, 0, "]", 0, "]", "[", "_x_x_x_x_bach_float64_x_x_x_x_", 2226520064, 1085834380, "[", "_x_x_x_x_bach_float64_x_x_x_x_", 0, 1086249984, "_x_x_x_x_bach_float64_x_x_x_x_", 2797600768, 1081087865, 100, 0, "]", 0, "]", "[", "_x_x_x_x_bach_float64_x_x_x_x_", 378011648, 1085900473, "[", "_x_x_x_x_bach_float64_x_x_x_x_", 0, 1086313984, "_x_x_x_x_bach_float64_x_x_x_x_", 553648128, 1080859167, 100, 0, "]", 0, "]", "[", "_x_x_x_x_bach_float64_x_x_x_x_", 556662784, 1085959167, "[", "_x_x_x_x_bach_float64_x_x_x_x_", 0, 1086354560, "_x_x_x_x_bach_float64_x_x_x_x_", 2961178624, 1080864737, 100, 0, "]", 0, "]", "[", "_x_x_x_x_bach_float64_x_x_x_x_", 2535718912, 1086018015, "[", "_x_x_x_x_bach_float64_x_x_x_x_", 0, 1086332160, "_x_x_x_x_bach_float64_x_x_x_x_", 2235564032, 1080834027, 100, 0, "]", 0, "]", "[", "_x_x_x_x_bach_float64_x_x_x_x_", 4013162496, 1086075928, "[", "_x_x_x_x_bach_float64_x_x_x_x_", 0, 1086338560, "_x_x_x_x_bach_float64_x_x_x_x_", 3934257152, 1080852484, 100, 0, "]", 0, "]", "[", "_x_x_x_x_bach_float64_x_x_x_x_", 171835392, 1086134423, "[", "_x_x_x_x_bach_float64_x_x_x_x_", 0, 1086275584, "_x_x_x_x_bach_float64_x_x_x_x_", 260046848, 1080995450, 100, 0, "]", 0, "]", "[", "_x_x_x_x_bach_float64_x_x_x_x_", 364249088, 1086197355, "[", "_x_x_x_x_bach_float64_x_x_x_x_", 0, 1086307584, "_x_x_x_x_bach_float64_x_x_x_x_", 2164260864, 1080971157, 100, 0, "]", 0, "]", "[", "_x_x_x_x_bach_float64_x_x_x_x_", 2082209792, 1086259537, "[", "_x_x_x_x_bach_float64_x_x_x_x_", 0, 1086166784, "_x_x_x_x_bach_float64_x_x_x_x_", 824180736, 1081116168, 100, 0, "]", 0, "]", "[", "_x_x_x_x_bach_float64_x_x_x_x_", 1759182848, 1086326024, "[", "_x_x_x_x_bach_float64_x_x_x_x_", 0, 1086000384, "_x_x_x_x_bach_float64_x_x_x_x_", 1623195648, 1081267796, 100, 0, "]", 0, "]", "[", "_x_x_x_x_bach_float64_x_x_x_x_", 2549481472, 1086364677, "[", "_x_x_x_x_bach_float64_x_x_x_x_", 0, 1086006784, "_x_x_x_x_bach_float64_x_x_x_x_", 3607101440, 1081265827, 100, 0, "]", 0, "]", "[", "_x_x_x_x_bach_float64_x_x_x_x_", 2453274624, 1086403243, "[", "_x_x_x_x_bach_float64_x_x_x_x_", 0, 1086134784, "_x_x_x_x_bach_float64_x_x_x_x_", 2363490304, 1081155112, 100, 0, "]", 0, "]", "[", "_x_x_x_x_bach_float64_x_x_x_x_", 1202585600, 1086438353, "[", "_x_x_x_x_bach_float64_x_x_x_x_", 0, 1086335360, "_x_x_x_x_bach_float64_x_x_x_x_", 3120562176, 1080860890, 100, 0, "]", 0, "]", "[", "_x_x_x_x_bach_float64_x_x_x_x_", 206176256, 1086467714, "[", "_x_x_x_x_bach_float64_x_x_x_x_", 0, 1086205184, "_x_x_x_x_bach_float64_x_x_x_x_", 3139436544, 1081097767, 100, 0, "]", 0, "]", "[", "_x_x_x_x_bach_float64_x_x_x_x_", 3353477120, 1086501056, "[", "_x_x_x_x_bach_float64_x_x_x_x_", 0, 1086224384, "_x_x_x_x_bach_float64_x_x_x_x_", 2508193792, 1081106755, 100, 0, "]", 0, "]", "[", "_x_x_x_x_bach_float64_x_x_x_x_", 3188588544, 1086534680, "[", "_x_x_x_x_bach_float64_x_x_x_x_", 0, 1086360960, "_x_x_x_x_bach_float64_x_x_x_x_", 2722103296, 1080734132, 100, 0, "]", 0, "]", "[", "_x_x_x_x_bach_float64_x_x_x_x_", 3133603840, 1086562064, "[", "_x_x_x_x_bach_float64_x_x_x_x_", 0, 1086453760, "_x_x_x_x_bach_float64_x_x_x_x_", 1186988032, 1080515587, 100, 0, "]", 0, "]", "[", "_x_x_x_x_bach_float64_x_x_x_x_", 3167944704, 1086586059, "[", "_x_x_x_x_bach_float64_x_x_x_x_", 0, 1086357760, "_x_x_x_x_bach_float64_x_x_x_x_", 985661440, 1080776961, 100, 0, "]", 0, "]", "[", "_x_x_x_x_bach_float64_x_x_x_x_", 3408461824, 1086614112, "[", "_x_x_x_x_bach_float64_x_x_x_x_", 0, 1086447360, "_x_x_x_x_bach_float64_x_x_x_x_", 1547698176, 1080502927, 100, 0, "]", 0, "]", "[", "_x_x_x_x_bach_float64_x_x_x_x_", 1779826688, 1086637893, "[", "_x_x_x_x_bach_float64_x_x_x_x_", 0, 1086412160, "_x_x_x_x_bach_float64_x_x_x_x_", 729808896, 1080631286, 100, 0, "]", 0, "]", "[", "_x_x_x_x_bach_float64_x_x_x_x_", 4013228032, 1086663680, "[", "_x_x_x_x_bach_float64_x_x_x_x_", 0, 1086364160, "_x_x_x_x_bach_float64_x_x_x_x_", 369098752, 1080801130, 100, 0, "]", 0, "]", "[", "_x_x_x_x_bach_float64_x_x_x_x_", 3978821632, 1086692133, "[", "_x_x_x_x_bach_float64_x_x_x_x_", 0, 1086405760, "_x_x_x_x_bach_float64_x_x_x_x_", 104857600, 1080599937, 100, 0, "]", 0, "]", "[", "_x_x_x_x_bach_float64_x_x_x_x_", 2095972352, 1086717423, "[", "_x_x_x_x_bach_float64_x_x_x_x_", 0, 1086320384, "_x_x_x_x_bach_float64_x_x_x_x_", 1023410176, 1080909211, 100, 0, "]", 0, "]", "[", "_x_x_x_x_bach_float64_x_x_x_x_", 845217792, 1086747557, "[", "_x_x_x_x_bach_float64_x_x_x_x_", 0, 1086249984, "_x_x_x_x_bach_float64_x_x_x_x_", 2868903936, 1081035727, 100, 0, "]", 0, "]", "[", "_x_x_x_x_bach_float64_x_x_x_x_", 810876928, 1086779650, "[", "_x_x_x_x_bach_float64_x_x_x_x_", 0, 1086335360, "_x_x_x_x_bach_float64_x_x_x_x_", 2508193792, 1080861507, 100, 0, "]", 0, "]", "[", "_x_x_x_x_bach_float64_x_x_x_x_", 3030515712, 1086809023, "[", "_x_x_x_x_bach_float64_x_x_x_x_", 0, 1086351360, "_x_x_x_x_bach_float64_x_x_x_x_", 1312817152, 1080836561, 100, 0, "]", 0, "]", "[", "_x_x_x_x_bach_float64_x_x_x_x_", 2054684672, 1086838013, "[", "_x_x_x_x_bach_float64_x_x_x_x_", 0, 1086332160, "_x_x_x_x_bach_float64_x_x_x_x_", 3800039424, 1080891591, 100, 0, "]", 0, "]", "[", "_x_x_x_x_bach_float64_x_x_x_x_", 3717726208, 1086867867, "[", "_x_x_x_x_bach_float64_x_x_x_x_", 0, 1086243584, "_x_x_x_x_bach_float64_x_x_x_x_", 2596274176, 1081023974, 100, 0, "]", 0, "]", "[", "_x_x_x_x_bach_float64_x_x_x_x_", 4253745152, 1086899781, "[", "_x_x_x_x_bach_float64_x_x_x_x_", 0, 1086344960, "_x_x_x_x_bach_float64_x_x_x_x_", 2722103296, 1080445364, 100, 0, "]", 0, "]", 0, "]" ],
					"whole_roll_data_count" : [ 1 ]
				}

			}
, 			{
				"box" : 				{
					"id" : "obj-107",
					"maxclass" : "comment",
					"numinlets" : 1,
					"numoutlets" : 0,
					"patching_rect" : [ 972.0, 469.0, 150.0, 20.0 ],
					"text" : "bach.roll @clefs ffgg"
				}

			}
, 			{
				"box" : 				{
					"id" : "obj-105",
					"maxclass" : "toggle",
					"numinlets" : 1,
					"numoutlets" : 1,
					"outlettype" : [ "int" ],
					"parameter_enable" : 0,
					"patching_rect" : [ 737.0, 411.0, 24.0, 24.0 ]
				}

			}
, 			{
				"box" : 				{
					"id" : "obj-104",
					"maxclass" : "newobj",
					"numinlets" : 0,
					"numoutlets" : 1,
					"outlettype" : [ "" ],
					"patching_rect" : [ 737.0, 379.0, 85.0, 22.0 ],
					"text" : "r global.switch"
				}

			}
, 			{
				"box" : 				{
					"id" : "obj-103",
					"maxclass" : "newobj",
					"numinlets" : 2,
					"numoutlets" : 2,
					"outlettype" : [ "", "float" ],
					"patching_rect" : [ 738.0, 445.0, 232.0, 22.0 ],
					"saved_object_attributes" : 					{
						"versionnumber" : 80100
					}
,
					"text" : "bach.transcribe"
				}

			}
, 			{
				"box" : 				{
					"id" : "obj-100",
					"maxclass" : "newobj",
					"numinlets" : 1,
					"numoutlets" : 0,
					"patching_rect" : [ 734.0, 306.0, 40.0, 22.0 ],
					"text" : "s play"
				}

			}
, 			{
				"box" : 				{
					"id" : "obj-99",
					"maxclass" : "message",
					"numinlets" : 2,
					"numoutlets" : 1,
					"outlettype" : [ "" ],
					"patching_rect" : [ 734.0, 264.0, 175.0, 22.0 ],
					"text" : "note 1 1 ( 0. ( $1 $2 100. 0 ) 0 )"
				}

			}
, 			{
				"box" : 				{
					"id" : "obj-97",
					"maxclass" : "message",
					"numinlets" : 2,
					"numoutlets" : 1,
					"outlettype" : [ "" ],
					"patching_rect" : [ 604.0, 264.0, 116.0, 22.0 ],
					"text" : "8350. 227.157055"
				}

			}
, 			{
				"box" : 				{
					"id" : "obj-95",
					"maxclass" : "newobj",
					"numinlets" : 2,
					"numoutlets" : 1,
					"outlettype" : [ "" ],
					"patching_rect" : [ 734.0, 222.0, 74.0, 22.0 ],
					"text" : "pack f 2500."
				}

			}
, 			{
				"box" : 				{
					"id" : "obj-94",
					"maxclass" : "newobj",
					"numinlets" : 0,
					"numoutlets" : 1,
					"outlettype" : [ "" ],
					"patching_rect" : [ 789.0, 190.0, 75.0, 22.0 ],
					"text" : "r note.length"
				}

			}
, 			{
				"box" : 				{
					"id" : "obj-92",
					"maxclass" : "newobj",
					"numinlets" : 0,
					"numoutlets" : 1,
					"outlettype" : [ "" ],
					"patching_rect" : [ 735.0, 80.0, 233.0, 22.0 ],
					"text" : "r pitch"
				}

			}
, 			{
				"box" : 				{
					"id" : "obj-91",
					"maxclass" : "newobj",
					"numinlets" : 0,
					"numoutlets" : 1,
					"outlettype" : [ "" ],
					"patching_rect" : [ 301.0, 61.0, 38.0, 22.0 ],
					"text" : "r play"
				}

			}
, 			{
				"box" : 				{
					"id" : "obj-90",
					"maxclass" : "newobj",
					"numinlets" : 3,
					"numoutlets" : 2,
					"outlettype" : [ "", "int" ],
					"patching_rect" : [ 301.0, 107.0, 105.0, 22.0 ],
					"text" : "bach.ezmidiplay 8"
				}

			}
, 			{
				"box" : 				{
					"id" : "obj-89",
					"maxclass" : "message",
					"numinlets" : 2,
					"numoutlets" : 1,
					"outlettype" : [ "" ],
					"patching_rect" : [ 344.0, 61.0, 29.5, 22.0 ],
					"text" : "8"
				}

			}
, 			{
				"box" : 				{
					"id" : "obj-87",
					"maxclass" : "newobj",
					"numinlets" : 1,
					"numoutlets" : 0,
					"patching_rect" : [ 98.0, 1136.0, 43.0, 22.0 ],
					"text" : "s pitch"
				}

			}
, 			{
				"box" : 				{
					"format" : 6,
					"id" : "obj-86",
					"maxclass" : "flonum",
					"numinlets" : 1,
					"numoutlets" : 2,
					"outlettype" : [ "", "bang" ],
					"parameter_enable" : 0,
					"patching_rect" : [ 477.5, 1083.0, 50.0, 22.0 ]
				}

			}
, 			{
				"box" : 				{
					"id" : "obj-84",
					"maxclass" : "comment",
					"numinlets" : 1,
					"numoutlets" : 0,
					"patching_rect" : [ 567.5, 1009.0, 59.0, 20.0 ],
					"text" : "<= % dur"
				}

			}
, 			{
				"box" : 				{
					"format" : 6,
					"id" : "obj-82",
					"maxclass" : "flonum",
					"numinlets" : 1,
					"numoutlets" : 2,
					"outlettype" : [ "", "bang" ],
					"parameter_enable" : 0,
					"patching_rect" : [ 515.5, 1009.0, 50.0, 22.0 ]
				}

			}
, 			{
				"box" : 				{
					"id" : "obj-78",
					"maxclass" : "newobj",
					"numinlets" : 2,
					"numoutlets" : 1,
					"outlettype" : [ "float" ],
					"patching_rect" : [ 477.5, 1047.0, 29.5, 22.0 ],
					"text" : "* 1."
				}

			}
, 			{
				"box" : 				{
					"id" : "obj-77",
					"maxclass" : "newobj",
					"numinlets" : 1,
					"numoutlets" : 0,
					"patching_rect" : [ 410.0, 1040.0, 47.0, 22.0 ],
					"text" : "s onset"
				}

			}
, 			{
				"box" : 				{
					"id" : "obj-74",
					"maxclass" : "newobj",
					"numinlets" : 1,
					"numoutlets" : 2,
					"outlettype" : [ "float", "float" ],
					"patching_rect" : [ 410.0, 1009.0, 86.5, 22.0 ],
					"text" : "t f f"
				}

			}
, 			{
				"box" : 				{
					"id" : "obj-73",
					"maxclass" : "comment",
					"numinlets" : 1,
					"numoutlets" : 0,
					"patching_rect" : [ 178.0, 1069.0, 180.0, 20.0 ],
					"text" : "output only if the value changes"
				}

			}
, 			{
				"box" : 				{
					"format" : 6,
					"id" : "obj-71",
					"maxclass" : "flonum",
					"numinlets" : 1,
					"numoutlets" : 2,
					"outlettype" : [ "", "bang" ],
					"parameter_enable" : 0,
					"patching_rect" : [ 98.0, 1094.0, 76.0, 22.0 ]
				}

			}
, 			{
				"box" : 				{
					"id" : "obj-68",
					"maxclass" : "newobj",
					"numinlets" : 1,
					"numoutlets" : 3,
					"outlettype" : [ "", "int", "int" ],
					"patching_rect" : [ 98.0, 1061.0, 61.0, 22.0 ],
					"text" : "change 0."
				}

			}
, 			{
				"box" : 				{
					"format" : 6,
					"id" : "obj-67",
					"maxclass" : "flonum",
					"numinlets" : 1,
					"numoutlets" : 2,
					"outlettype" : [ "", "bang" ],
					"parameter_enable" : 0,
					"patching_rect" : [ 98.0, 1029.0, 76.0, 22.0 ]
				}

			}
, 			{
				"box" : 				{
					"id" : "obj-65",
					"maxclass" : "newobj",
					"numinlets" : 2,
					"numoutlets" : 1,
					"outlettype" : [ "" ],
					"patching_rect" : [ 98.0, 992.0, 59.0, 22.0 ],
					"text" : "round 25."
				}

			}
, 			{
				"box" : 				{
					"format" : 6,
					"id" : "obj-57",
					"maxclass" : "flonum",
					"numinlets" : 1,
					"numoutlets" : 2,
					"outlettype" : [ "", "bang" ],
					"parameter_enable" : 0,
					"patching_rect" : [ 411.399999999999977, 961.0, 81.0, 22.0 ]
				}

			}
, 			{
				"box" : 				{
					"id" : "obj-58",
					"maxclass" : "comment",
					"numinlets" : 1,
					"numoutlets" : 0,
					"patching_rect" : [ 412.0, 781.0, 150.0, 20.0 ],
					"text" : "duration:"
				}

			}
, 			{
				"box" : 				{
					"id" : "obj-59",
					"maxclass" : "newobj",
					"numinlets" : 2,
					"numoutlets" : 1,
					"outlettype" : [ "float" ],
					"patching_rect" : [ 644.0, 848.0, 29.5, 22.0 ],
					"text" : "f"
				}

			}
, 			{
				"box" : 				{
					"id" : "obj-60",
					"maxclass" : "newobj",
					"numinlets" : 2,
					"numoutlets" : 1,
					"outlettype" : [ "float" ],
					"patching_rect" : [ 572.0, 812.0, 29.5, 22.0 ],
					"text" : "f"
				}

			}
, 			{
				"box" : 				{
					"id" : "obj-61",
					"maxclass" : "newobj",
					"numinlets" : 2,
					"numoutlets" : 2,
					"outlettype" : [ "float", "int" ],
					"patching_rect" : [ 537.0, 879.0, 126.0, 22.0 ],
					"text" : "maximum 0."
				}

			}
, 			{
				"box" : 				{
					"id" : "obj-62",
					"maxclass" : "newobj",
					"numinlets" : 2,
					"numoutlets" : 2,
					"outlettype" : [ "float", "int" ],
					"patching_rect" : [ 451.0, 848.0, 140.0, 22.0 ],
					"text" : "minimum 1."
				}

			}
, 			{
				"box" : 				{
					"id" : "obj-63",
					"maxclass" : "newobj",
					"numinlets" : 6,
					"numoutlets" : 1,
					"outlettype" : [ "" ],
					"patching_rect" : [ 411.399999999999977, 913.0, 117.0, 22.0 ],
					"text" : "scale 0. 1. 500. 100."
				}

			}
, 			{
				"box" : 				{
					"id" : "obj-64",
					"maxclass" : "newobj",
					"numinlets" : 1,
					"numoutlets" : 3,
					"outlettype" : [ "float", "float", "float" ],
					"patching_rect" : [ 410.0, 796.0, 101.399999999999977, 22.0 ],
					"text" : "t f f f"
				}

			}
, 			{
				"box" : 				{
					"format" : 6,
					"id" : "obj-56",
					"maxclass" : "flonum",
					"numinlets" : 1,
					"numoutlets" : 2,
					"outlettype" : [ "", "bang" ],
					"parameter_enable" : 0,
					"patching_rect" : [ 99.400000000000006, 961.0, 78.0, 22.0 ]
				}

			}
, 			{
				"box" : 				{
					"id" : "obj-54",
					"maxclass" : "comment",
					"numinlets" : 1,
					"numoutlets" : 0,
					"patching_rect" : [ 100.0, 781.0, 150.0, 20.0 ],
					"text" : "pitch:"
				}

			}
, 			{
				"box" : 				{
					"id" : "obj-52",
					"maxclass" : "newobj",
					"numinlets" : 2,
					"numoutlets" : 1,
					"outlettype" : [ "float" ],
					"patching_rect" : [ 345.0, 839.0, 29.5, 22.0 ],
					"text" : "f"
				}

			}
, 			{
				"box" : 				{
					"id" : "obj-51",
					"maxclass" : "newobj",
					"numinlets" : 2,
					"numoutlets" : 1,
					"outlettype" : [ "float" ],
					"patching_rect" : [ 251.0, 820.0, 29.5, 22.0 ],
					"text" : "f"
				}

			}
, 			{
				"box" : 				{
					"id" : "obj-47",
					"maxclass" : "newobj",
					"numinlets" : 2,
					"numoutlets" : 2,
					"outlettype" : [ "float", "int" ],
					"patching_rect" : [ 264.0, 872.0, 100.0, 22.0 ],
					"text" : "maximum 0."
				}

			}
, 			{
				"box" : 				{
					"id" : "obj-46",
					"maxclass" : "newobj",
					"numinlets" : 2,
					"numoutlets" : 2,
					"outlettype" : [ "float", "int" ],
					"patching_rect" : [ 123.0, 848.0, 147.0, 22.0 ],
					"text" : "minimum 1."
				}

			}
, 			{
				"box" : 				{
					"id" : "obj-45",
					"maxclass" : "newobj",
					"numinlets" : 6,
					"numoutlets" : 1,
					"outlettype" : [ "" ],
					"patching_rect" : [ 99.400000000000006, 913.0, 275.100000000000023, 22.0 ],
					"text" : "scale 0. 1. 3100. 10800."
				}

			}
, 			{
				"box" : 				{
					"fontface" : 1,
					"id" : "obj-44",
					"maxclass" : "comment",
					"numinlets" : 1,
					"numoutlets" : 0,
					"patching_rect" : [ 269.0, 759.0, 154.0, 20.0 ],
					"text" : "AUTOSCALE"
				}

			}
, 			{
				"box" : 				{
					"id" : "obj-42",
					"maxclass" : "newobj",
					"numinlets" : 1,
					"numoutlets" : 3,
					"outlettype" : [ "float", "float", "float" ],
					"patching_rect" : [ 98.0, 796.0, 185.0, 22.0 ],
					"text" : "t f f f"
				}

			}
, 			{
				"box" : 				{
					"id" : "obj-41",
					"maxclass" : "comment",
					"numinlets" : 1,
					"numoutlets" : 0,
					"patching_rect" : [ 343.0, 568.0, 150.0, 20.0 ],
					"text" : " output of low pass filter"
				}

			}
, 			{
				"box" : 				{
					"id" : "obj-39",
					"maxclass" : "newobj",
					"numinlets" : 1,
					"numoutlets" : 3,
					"outlettype" : [ "float", "float", "float" ],
					"patching_rect" : [ 123.0, 567.0, 210.0, 22.0 ],
					"text" : "t f f f"
				}

			}
, 			{
				"box" : 				{
					"id" : "obj-38",
					"maxclass" : "comment",
					"numinlets" : 1,
					"numoutlets" : 0,
					"patching_rect" : [ 231.0, 405.0, 150.0, 20.0 ],
					"text" : "LOWPASS FILTER:"
				}

			}
, 			{
				"box" : 				{
					"id" : "obj-36",
					"linecount" : 5,
					"maxclass" : "comment",
					"numinlets" : 1,
					"numoutlets" : 0,
					"patching_rect" : [ 231.0, 449.0, 150.0, 75.0 ],
					"text" : "where:\nx is input stream\ny i output stream\nn is current sample value\nz is feedback coefficient"
				}

			}
, 			{
				"box" : 				{
					"id" : "obj-34",
					"maxclass" : "comment",
					"numinlets" : 1,
					"numoutlets" : 0,
					"patching_rect" : [ 231.0, 427.0, 245.0, 20.0 ],
					"text" : " y[n] = ( x[n] * ( 1 - z ) ) * ( y[n-1] * z)"
				}

			}
, 			{
				"box" : 				{
					"id" : "obj-32",
					"maxclass" : "comment",
					"numinlets" : 1,
					"numoutlets" : 0,
					"patching_rect" : [ 244.0, 591.0, 85.0, 20.0 ],
					"presentation" : 1,
					"presentation_rect" : [ 236.0, 104.0, 85.0, 20.0 ],
					"text" : "\"calmed\" data"
				}

			}
, 			{
				"box" : 				{
					"id" : "obj-31",
					"maxclass" : "multislider",
					"numinlets" : 1,
					"numoutlets" : 2,
					"outlettype" : [ "", "" ],
					"parameter_enable" : 0,
					"patching_rect" : [ 123.0, 609.0, 200.0, 138.0 ],
					"presentation" : 1,
					"presentation_rect" : [ 115.0, 122.0, 200.0, 138.0 ],
					"setminmax" : [ 0.0, 500.0 ],
					"setstyle" : 2
				}

			}
, 			{
				"box" : 				{
					"id" : "obj-30",
					"maxclass" : "newobj",
					"numinlets" : 2,
					"numoutlets" : 1,
					"outlettype" : [ "float" ],
					"patching_rect" : [ 123.5, 525.0, 29.5, 22.0 ],
					"text" : "+ 0."
				}

			}
, 			{
				"box" : 				{
					"id" : "obj-29",
					"maxclass" : "newobj",
					"numinlets" : 2,
					"numoutlets" : 1,
					"outlettype" : [ "float" ],
					"patching_rect" : [ 160.0, 496.0, 33.0, 22.0 ],
					"text" : "* 0.5"
				}

			}
, 			{
				"box" : 				{
					"id" : "obj-28",
					"maxclass" : "newobj",
					"numinlets" : 2,
					"numoutlets" : 1,
					"outlettype" : [ "float" ],
					"patching_rect" : [ 79.0, 496.0, 33.0, 22.0 ],
					"text" : "* 0.5"
				}

			}
, 			{
				"box" : 				{
					"id" : "obj-27",
					"maxclass" : "newobj",
					"numinlets" : 2,
					"numoutlets" : 1,
					"outlettype" : [ "float" ],
					"patching_rect" : [ 93.0, 458.0, 29.5, 22.0 ],
					"text" : "!- 1."
				}

			}
, 			{
				"box" : 				{
					"id" : "obj-26",
					"maxclass" : "newobj",
					"numinlets" : 1,
					"numoutlets" : 2,
					"outlettype" : [ "float", "float" ],
					"patching_rect" : [ 93.0, 422.0, 86.0, 22.0 ],
					"text" : "t f f"
				}

			}
, 			{
				"box" : 				{
					"format" : 6,
					"id" : "obj-25",
					"maxclass" : "flonum",
					"numinlets" : 1,
					"numoutlets" : 2,
					"outlettype" : [ "", "bang" ],
					"parameter_enable" : 0,
					"patching_rect" : [ 93.0, 389.0, 50.0, 22.0 ]
				}

			}
, 			{
				"box" : 				{
					"id" : "obj-23",
					"maxclass" : "live.dial",
					"numinlets" : 1,
					"numoutlets" : 2,
					"outlettype" : [ "", "float" ],
					"parameter_enable" : 1,
					"patching_rect" : [ 93.0, 321.0, 41.0, 48.0 ],
					"presentation" : 1,
					"presentation_rect" : [ 15.0, 146.0, 41.0, 48.0 ],
					"saved_attribute_attributes" : 					{
						"valueof" : 						{
							"parameter_initial" : [ 0.5 ],
							"parameter_initial_enable" : 1,
							"parameter_longname" : "live.dial",
							"parameter_mmax" : 1.0,
							"parameter_shortname" : "Z",
							"parameter_type" : 0,
							"parameter_unitstyle" : 1
						}

					}
,
					"varname" : "live.dial"
				}

			}
, 			{
				"box" : 				{
					"id" : "obj-22",
					"maxclass" : "comment",
					"numinlets" : 1,
					"numoutlets" : 0,
					"patching_rect" : [ 252.0, 214.0, 114.0, 20.0 ],
					"text" : "\"erratic\" data"
				}

			}
, 			{
				"box" : 				{
					"id" : "obj-20",
					"maxclass" : "multislider",
					"numinlets" : 1,
					"numoutlets" : 2,
					"outlettype" : [ "", "" ],
					"parameter_enable" : 0,
					"patching_rect" : [ 181.0, 236.0, 200.0, 138.0 ],
					"setminmax" : [ 0.0, 500.0 ],
					"setstyle" : 2
				}

			}
, 			{
				"box" : 				{
					"id" : "obj-19",
					"linecount" : 3,
					"maxclass" : "comment",
					"numinlets" : 1,
					"numoutlets" : 0,
					"patching_rect" : [ 383.0, 236.0, 150.0, 48.0 ],
					"text" : "multislider @setstyle 2 @size 1 @setminmax 0. 500."
				}

			}
, 			{
				"box" : 				{
					"id" : "obj-17",
					"maxclass" : "newobj",
					"numinlets" : 3,
					"numoutlets" : 1,
					"outlettype" : [ "int" ],
					"patching_rect" : [ 74.0, 182.0, 79.0, 22.0 ],
					"text" : "drunk 300 75"
				}

			}
, 			{
				"box" : 				{
					"id" : "obj-16",
					"maxclass" : "toggle",
					"numinlets" : 1,
					"numoutlets" : 1,
					"outlettype" : [ "int" ],
					"parameter_enable" : 0,
					"patching_rect" : [ 74.0, 94.0, 24.0, 24.0 ]
				}

			}
, 			{
				"box" : 				{
					"id" : "obj-15",
					"maxclass" : "toggle",
					"numinlets" : 1,
					"numoutlets" : 1,
					"outlettype" : [ "int" ],
					"parameter_enable" : 0,
					"patching_rect" : [ 473.0, 26.0, 76.0, 76.0 ],
					"presentation" : 1,
					"presentation_rect" : [ 11.0, 11.0, 76.0, 76.0 ]
				}

			}
, 			{
				"box" : 				{
					"id" : "obj-13",
					"maxclass" : "comment",
					"numinlets" : 1,
					"numoutlets" : 0,
					"patching_rect" : [ 421.0, 34.0, 55.0, 20.0 ],
					"text" : "<toggle>"
				}

			}
, 			{
				"box" : 				{
					"id" : "obj-12",
					"maxclass" : "newobj",
					"numinlets" : 1,
					"numoutlets" : 0,
					"patching_rect" : [ 473.0, 113.0, 87.0, 22.0 ],
					"text" : "s global.switch"
				}

			}
, 			{
				"box" : 				{
					"id" : "obj-11",
					"maxclass" : "newobj",
					"numinlets" : 0,
					"numoutlets" : 1,
					"outlettype" : [ "" ],
					"patching_rect" : [ 74.0, 59.0, 85.0, 22.0 ],
					"text" : "r global.switch"
				}

			}
, 			{
				"box" : 				{
					"id" : "obj-10",
					"maxclass" : "comment",
					"numinlets" : 1,
					"numoutlets" : 0,
					"patching_rect" : [ 12.0, 94.0, 150.0, 20.0 ],
					"text" : "<f>"
				}

			}
, 			{
				"box" : 				{
					"id" : "obj-8",
					"maxclass" : "newobj",
					"numinlets" : 0,
					"numoutlets" : 1,
					"outlettype" : [ "" ],
					"patching_rect" : [ 182.0, 80.0, 45.0, 22.0 ],
					"text" : "r onset"
				}

			}
, 			{
				"box" : 				{
					"format" : 6,
					"id" : "obj-7",
					"maxclass" : "flonum",
					"numinlets" : 1,
					"numoutlets" : 2,
					"outlettype" : [ "", "bang" ],
					"parameter_enable" : 0,
					"patching_rect" : [ 188.0, 111.0, 50.0, 22.0 ]
				}

			}
, 			{
				"box" : 				{
					"id" : "obj-3",
					"maxclass" : "newobj",
					"numinlets" : 2,
					"numoutlets" : 1,
					"outlettype" : [ "bang" ],
					"patching_rect" : [ 74.0, 142.0, 73.0, 22.0 ],
					"text" : "metro 2500."
				}

			}
 ],
		"lines" : [ 			{
				"patchline" : 				{
					"destination" : [ "obj-109", 0 ],
					"source" : [ "obj-103", 0 ]
				}

			}
, 			{
				"patchline" : 				{
					"destination" : [ "obj-105", 0 ],
					"source" : [ "obj-104", 0 ]
				}

			}
, 			{
				"patchline" : 				{
					"destination" : [ "obj-103", 0 ],
					"source" : [ "obj-105", 0 ]
				}

			}
, 			{
				"patchline" : 				{
					"destination" : [ "obj-116", 0 ],
					"source" : [ "obj-109", 6 ]
				}

			}
, 			{
				"patchline" : 				{
					"destination" : [ "obj-16", 0 ],
					"source" : [ "obj-11", 0 ]
				}

			}
, 			{
				"patchline" : 				{
					"destination" : [ "obj-115", 0 ],
					"source" : [ "obj-110", 1 ]
				}

			}
, 			{
				"patchline" : 				{
					"destination" : [ "obj-123", 0 ],
					"source" : [ "obj-110", 2 ]
				}

			}
, 			{
				"patchline" : 				{
					"destination" : [ "obj-95", 0 ],
					"source" : [ "obj-110", 0 ]
				}

			}
, 			{
				"patchline" : 				{
					"destination" : [ "obj-123", 1 ],
					"source" : [ "obj-111", 0 ]
				}

			}
, 			{
				"patchline" : 				{
					"destination" : [ "obj-109", 0 ],
					"source" : [ "obj-113", 0 ]
				}

			}
, 			{
				"patchline" : 				{
					"destination" : [ "obj-103", 1 ],
					"source" : [ "obj-115", 0 ]
				}

			}
, 			{
				"patchline" : 				{
					"destination" : [ "obj-125", 0 ],
					"source" : [ "obj-123", 0 ]
				}

			}
, 			{
				"patchline" : 				{
					"destination" : [ "obj-103", 1 ],
					"source" : [ "obj-125", 0 ]
				}

			}
, 			{
				"patchline" : 				{
					"destination" : [ "obj-12", 0 ],
					"source" : [ "obj-15", 0 ]
				}

			}
, 			{
				"patchline" : 				{
					"destination" : [ "obj-3", 0 ],
					"source" : [ "obj-16", 0 ]
				}

			}
, 			{
				"patchline" : 				{
					"destination" : [ "obj-20", 0 ],
					"order" : 0,
					"source" : [ "obj-17", 0 ]
				}

			}
, 			{
				"patchline" : 				{
					"destination" : [ "obj-28", 0 ],
					"order" : 1,
					"source" : [ "obj-17", 0 ]
				}

			}
, 			{
				"patchline" : 				{
					"destination" : [ "obj-25", 0 ],
					"source" : [ "obj-23", 0 ]
				}

			}
, 			{
				"patchline" : 				{
					"destination" : [ "obj-26", 0 ],
					"source" : [ "obj-25", 0 ]
				}

			}
, 			{
				"patchline" : 				{
					"destination" : [ "obj-27", 0 ],
					"source" : [ "obj-26", 0 ]
				}

			}
, 			{
				"patchline" : 				{
					"destination" : [ "obj-29", 0 ],
					"source" : [ "obj-26", 1 ]
				}

			}
, 			{
				"patchline" : 				{
					"destination" : [ "obj-28", 1 ],
					"source" : [ "obj-27", 0 ]
				}

			}
, 			{
				"patchline" : 				{
					"destination" : [ "obj-30", 0 ],
					"source" : [ "obj-28", 0 ]
				}

			}
, 			{
				"patchline" : 				{
					"destination" : [ "obj-30", 1 ],
					"source" : [ "obj-29", 0 ]
				}

			}
, 			{
				"patchline" : 				{
					"destination" : [ "obj-17", 0 ],
					"source" : [ "obj-3", 0 ]
				}

			}
, 			{
				"patchline" : 				{
					"destination" : [ "obj-29", 1 ],
					"midpoints" : [ 133.0, 548.0, 204.0, 548.0, 204.0, 491.0, 183.5, 491.0 ],
					"order" : 0,
					"source" : [ "obj-30", 0 ]
				}

			}
, 			{
				"patchline" : 				{
					"destination" : [ "obj-39", 0 ],
					"order" : 1,
					"source" : [ "obj-30", 0 ]
				}

			}
, 			{
				"patchline" : 				{
					"destination" : [ "obj-31", 0 ],
					"source" : [ "obj-39", 0 ]
				}

			}
, 			{
				"patchline" : 				{
					"destination" : [ "obj-42", 0 ],
					"source" : [ "obj-39", 1 ]
				}

			}
, 			{
				"patchline" : 				{
					"destination" : [ "obj-64", 0 ],
					"source" : [ "obj-39", 2 ]
				}

			}
, 			{
				"patchline" : 				{
					"destination" : [ "obj-45", 0 ],
					"source" : [ "obj-42", 0 ]
				}

			}
, 			{
				"patchline" : 				{
					"destination" : [ "obj-46", 0 ],
					"source" : [ "obj-42", 1 ]
				}

			}
, 			{
				"patchline" : 				{
					"destination" : [ "obj-47", 0 ],
					"source" : [ "obj-42", 2 ]
				}

			}
, 			{
				"patchline" : 				{
					"destination" : [ "obj-56", 0 ],
					"source" : [ "obj-45", 0 ]
				}

			}
, 			{
				"patchline" : 				{
					"destination" : [ "obj-45", 1 ],
					"order" : 1,
					"source" : [ "obj-46", 0 ]
				}

			}
, 			{
				"patchline" : 				{
					"destination" : [ "obj-51", 0 ],
					"midpoints" : [ 132.5, 873.0, 108.0, 873.0, 108.0, 828.0, 246.0, 828.0, 246.0, 819.0, 260.5, 819.0 ],
					"order" : 0,
					"source" : [ "obj-46", 0 ]
				}

			}
, 			{
				"patchline" : 				{
					"destination" : [ "obj-45", 2 ],
					"order" : 1,
					"source" : [ "obj-47", 0 ]
				}

			}
, 			{
				"patchline" : 				{
					"destination" : [ "obj-52", 0 ],
					"midpoints" : [ 273.5, 897.0, 384.0, 897.0, 384.0, 825.0, 354.5, 825.0 ],
					"order" : 0,
					"source" : [ "obj-47", 0 ]
				}

			}
, 			{
				"patchline" : 				{
					"destination" : [ "obj-46", 1 ],
					"source" : [ "obj-51", 0 ]
				}

			}
, 			{
				"patchline" : 				{
					"destination" : [ "obj-47", 1 ],
					"source" : [ "obj-52", 0 ]
				}

			}
, 			{
				"patchline" : 				{
					"destination" : [ "obj-65", 0 ],
					"source" : [ "obj-56", 0 ]
				}

			}
, 			{
				"patchline" : 				{
					"destination" : [ "obj-74", 0 ],
					"source" : [ "obj-57", 0 ]
				}

			}
, 			{
				"patchline" : 				{
					"destination" : [ "obj-61", 1 ],
					"source" : [ "obj-59", 0 ]
				}

			}
, 			{
				"patchline" : 				{
					"destination" : [ "obj-62", 1 ],
					"source" : [ "obj-60", 0 ]
				}

			}
, 			{
				"patchline" : 				{
					"destination" : [ "obj-59", 0 ],
					"midpoints" : [ 546.5, 903.0, 534.0, 903.0, 534.0, 870.0, 603.0, 870.0, 603.0, 846.0, 639.0, 846.0, 639.0, 843.0, 653.5, 843.0 ],
					"order" : 0,
					"source" : [ "obj-61", 0 ]
				}

			}
, 			{
				"patchline" : 				{
					"destination" : [ "obj-63", 2 ],
					"order" : 1,
					"source" : [ "obj-61", 0 ]
				}

			}
, 			{
				"patchline" : 				{
					"destination" : [ "obj-60", 0 ],
					"midpoints" : [ 460.5, 873.0, 438.0, 873.0, 438.0, 828.0, 558.0, 828.0, 558.0, 807.0, 581.5, 807.0 ],
					"order" : 0,
					"source" : [ "obj-62", 0 ]
				}

			}
, 			{
				"patchline" : 				{
					"destination" : [ "obj-63", 1 ],
					"order" : 1,
					"source" : [ "obj-62", 0 ]
				}

			}
, 			{
				"patchline" : 				{
					"destination" : [ "obj-57", 0 ],
					"source" : [ "obj-63", 0 ]
				}

			}
, 			{
				"patchline" : 				{
					"destination" : [ "obj-61", 0 ],
					"source" : [ "obj-64", 2 ]
				}

			}
, 			{
				"patchline" : 				{
					"destination" : [ "obj-62", 0 ],
					"source" : [ "obj-64", 1 ]
				}

			}
, 			{
				"patchline" : 				{
					"destination" : [ "obj-63", 0 ],
					"source" : [ "obj-64", 0 ]
				}

			}
, 			{
				"patchline" : 				{
					"destination" : [ "obj-67", 0 ],
					"source" : [ "obj-65", 0 ]
				}

			}
, 			{
				"patchline" : 				{
					"destination" : [ "obj-68", 0 ],
					"source" : [ "obj-67", 0 ]
				}

			}
, 			{
				"patchline" : 				{
					"destination" : [ "obj-71", 0 ],
					"source" : [ "obj-68", 0 ]
				}

			}
, 			{
				"patchline" : 				{
					"destination" : [ "obj-3", 1 ],
					"source" : [ "obj-7", 0 ]
				}

			}
, 			{
				"patchline" : 				{
					"destination" : [ "obj-87", 0 ],
					"source" : [ "obj-71", 0 ]
				}

			}
, 			{
				"patchline" : 				{
					"destination" : [ "obj-77", 0 ],
					"source" : [ "obj-74", 0 ]
				}

			}
, 			{
				"patchline" : 				{
					"destination" : [ "obj-78", 0 ],
					"source" : [ "obj-74", 1 ]
				}

			}
, 			{
				"patchline" : 				{
					"destination" : [ "obj-86", 0 ],
					"source" : [ "obj-78", 0 ]
				}

			}
, 			{
				"patchline" : 				{
					"destination" : [ "obj-7", 0 ],
					"source" : [ "obj-8", 0 ]
				}

			}
, 			{
				"patchline" : 				{
					"destination" : [ "obj-78", 1 ],
					"source" : [ "obj-82", 0 ]
				}

			}
, 			{
				"patchline" : 				{
					"destination" : [ "obj-126", 0 ],
					"source" : [ "obj-86", 0 ]
				}

			}
, 			{
				"patchline" : 				{
					"destination" : [ "obj-90", 1 ],
					"source" : [ "obj-89", 0 ]
				}

			}
, 			{
				"patchline" : 				{
					"destination" : [ "obj-90", 0 ],
					"source" : [ "obj-91", 0 ]
				}

			}
, 			{
				"patchline" : 				{
					"destination" : [ "obj-110", 0 ],
					"source" : [ "obj-92", 0 ]
				}

			}
, 			{
				"patchline" : 				{
					"destination" : [ "obj-95", 1 ],
					"source" : [ "obj-94", 0 ]
				}

			}
, 			{
				"patchline" : 				{
					"destination" : [ "obj-97", 1 ],
					"order" : 1,
					"source" : [ "obj-95", 0 ]
				}

			}
, 			{
				"patchline" : 				{
					"destination" : [ "obj-99", 0 ],
					"order" : 0,
					"source" : [ "obj-95", 0 ]
				}

			}
, 			{
				"patchline" : 				{
					"destination" : [ "obj-100", 0 ],
					"source" : [ "obj-99", 0 ]
				}

			}
 ],
		"parameters" : 		{
			"obj-23" : [ "live.dial", "Z", 0 ],
			"parameterbanks" : 			{
				"0" : 				{
					"index" : 0,
					"name" : "",
					"parameters" : [ "-", "-", "-", "-", "-", "-", "-", "-" ]
				}

			}
,
			"inherited_shortname" : 1
		}
,
		"dependency_cache" : [ 			{
				"name" : "bach.approx.maxpat",
				"bootpath" : "~/Documents/Max 8/Packages/bach/patchers",
				"patcherrelativepath" : "../../../Documents/Max 8/Packages/bach/patchers",
				"type" : "JSON",
				"implicit" : 1
			}
, 			{
				"name" : "bach.args.mxe64",
				"type" : "mx64"
			}
, 			{
				"name" : "bach.eq.mxe64",
				"type" : "mx64"
			}
, 			{
				"name" : "bach.expr.mxe64",
				"type" : "mx64"
			}
, 			{
				"name" : "bach.ezmidiplay.maxpat",
				"bootpath" : "~/Documents/Max 8/Packages/bach/patchers",
				"patcherrelativepath" : "../../../Documents/Max 8/Packages/bach/patchers",
				"type" : "JSON",
				"implicit" : 1
			}
, 			{
				"name" : "bach.filter.maxpat",
				"bootpath" : "~/Documents/Max 8/Packages/bach/patchers",
				"patcherrelativepath" : "../../../Documents/Max 8/Packages/bach/patchers",
				"type" : "JSON",
				"implicit" : 1
			}
, 			{
				"name" : "bach.flat.mxe64",
				"type" : "mx64"
			}
, 			{
				"name" : "bach.gcd.maxpat",
				"bootpath" : "~/Documents/Max 8/Packages/bach/patchers",
				"patcherrelativepath" : "../../../Documents/Max 8/Packages/bach/patchers",
				"type" : "JSON",
				"implicit" : 1
			}
, 			{
				"name" : "bach.gt.mxe64",
				"type" : "mx64"
			}
, 			{
				"name" : "bach.is.mxe64",
				"type" : "mx64"
			}
, 			{
				"name" : "bach.iter.mxe64",
				"type" : "mx64"
			}
, 			{
				"name" : "bach.keys.mxe64",
				"type" : "mx64"
			}
, 			{
				"name" : "bach.length.mxe64",
				"type" : "mx64"
			}
, 			{
				"name" : "bach.neq.mxe64",
				"type" : "mx64"
			}
, 			{
				"name" : "bach.nth.mxe64",
				"type" : "mx64"
			}
, 			{
				"name" : "bach.pick.mxe64",
				"type" : "mx64"
			}
, 			{
				"name" : "bach.playkeys.mxe64",
				"type" : "mx64"
			}
, 			{
				"name" : "bach.portal.mxe64",
				"type" : "mx64"
			}
, 			{
				"name" : "bach.print.mxe64",
				"type" : "mx64"
			}
, 			{
				"name" : "bach.reg.mxe64",
				"type" : "mx64"
			}
, 			{
				"name" : "bach.roll.mxe64",
				"type" : "mx64"
			}
, 			{
				"name" : "bach.slice.mxe64",
				"type" : "mx64"
			}
, 			{
				"name" : "bach.transcribe.mxe64",
				"type" : "mx64"
			}
 ],
		"autosave" : 0,
		"boxgroups" : [ 			{
				"boxes" : [ "obj-38", "obj-34", "obj-36" ]
			}
 ]
	}

}
